# xmcd
#
# Track frame offsets:
#	150
#	17301
#	32077
#	46932
#	60568
#	79387
#
# Disc length: 1289 seconds
#
# Revision: 1
# Processed by: cddbd v1.5.2PL0 Copyright (c) Steve Scherf et al.
# Submitted via: audiograbber 1.83.01
#
DISCID=3e050706
DTITLE=Petri Lehtinen and Essi Pöysti - Aurinkotanssija Ja Kuutamokulkija [CDS-Pr
DTITLE=omo)
DYEAR=2009
DGENRE=Pop
TTITLE0=Aurinkotanssija
TTITLE1=Pyydä Vain
TTITLE2=Vielä On Kesää Jäljellä
TTITLE3=Shanghain Valot
TTITLE4=Yksin Sateeseen
TTITLE5=Ennen Kuin Meet
EXTD=TR.
EXTT0=
EXTT1=
EXTT2=
EXTT3=
EXTT4=
EXTT5=
PLAYORDER=
